<svg width="1080" height="1080" viewBox="0 0 1080 1080" fill="none" xmlns="http://www.w3.org/2000/svg">
<rect width="1080" height="1080" fill="#FFFCF3"/>
<path d="M170.691 855.633C178.025 859.998 176.459 871.364 178.941 878.574C185.389 914.273 180.038 965.227 189.39 999.057C199.932 1037.39 234.844 1031.06 239.146 995.204C244.88 947.85 217.117 897.577 229.27 849.501C235.387 853.408 236.526 865.556 237.519 872.442C242.44 907.007 236.75 961.331 251.137 991.956C261.737 1014.64 280.733 1017.65 290.699 992.848C307.507 951.098 293.854 898.22 289.938 855.253C288.463 839.191 295.371 825.973 282.583 813.208C260.955 791.527 187.358 760.105 178.926 730.553C176.101 720.687 180.572 713.927 191.064 718.763C194.712 720.451 216.467 743.302 223.657 748.88C248.957 768.561 280.665 782.17 305.289 801.623C318.184 811.825 333.314 839.488 352.964 825.454C375.111 809.639 356.102 767.562 345.973 748.835C331.248 721.579 290.896 683.138 287.111 654.471C284.833 636.965 289.695 618.831 289.62 602.914C289.225 512.399 280.807 419.448 282.58 328.902C282.659 323.822 285.616 300.145 287.534 297.011C292.145 289.532 297.18 293.118 298.032 300.857C302.079 337.799 298.309 381.929 299.233 419.704C300.732 479.876 304.532 540.557 306.888 600.78C307.773 624.167 302.523 652.999 310.284 674.633C319.686 700.909 340.167 725.235 363.783 739.96C373.679 746.14 407.041 762.458 417.43 762.392C426.374 762.361 455.916 748.348 470.115 745.969C474.184 745.276 485.535 743.328 488.603 743.753C492.8 744.365 500.572 750.757 495.309 754.319C490.409 757.614 467.621 761.06 459.744 763.751C426.017 775.263 394.324 793.534 386.128 830.71C372.485 892.58 394.933 981.307 460.678 1004.81C502 1019.61 607.484 1024.08 645.263 1000.77C677.328 980.972 684.558 939.563 698.955 907.24C704.502 894.821 727.647 857.789 725.819 847.436C725.341 844.645 725.123 843.339 722.149 842.331C711.874 838.845 695.56 840.086 684.587 839.564C684.952 818.658 673.669 796.776 658.95 782.245C654.776 778.126 648.777 776.827 646.051 772.448C678.911 769.023 710.037 761.45 736.192 740.625C746.499 732.42 774.612 702.345 776.59 690.128C777.626 683.705 775.419 655.588 774.797 647.131C766.567 539.298 755.638 416.16 763.94 308.256C765.175 292.347 775.118 291.424 778.28 305.069C788.072 347.444 778.91 421.484 780.227 468.166C781.395 510.08 783.547 553.529 785.98 595.362C788.297 634.271 807.214 676.572 786.106 712.763C769.431 741.34 729.14 768.681 716.832 799.445C710.769 814.692 737.612 819.591 748.776 818.406C766.72 816.546 775.543 793.763 790.51 784.465C820.717 765.69 850.787 767.417 878.231 736.079C884.557 728.837 898.117 700.24 908.95 708.135C922.301 717.846 884.217 759.815 875.953 766.37C853.931 783.805 824.949 788.11 802.641 801.002C786.59 810.293 785.558 836.59 784.312 854.208C782.163 885.443 778.892 936.186 781.403 966.283C784.837 1007.04 819.897 1032.9 840.182 984.388C846.516 969.277 843.135 954.641 846.763 938.748L842.841 855.629C851.674 865.579 852.618 886.629 853.343 899.943C854.909 929.495 844.333 978.345 856.539 1003.97C867.811 1027.6 898.769 1024.93 904.239 996.862C912.233 955.998 895.912 910.566 899.123 868.996C902.678 870.908 903.611 880.132 904.443 884.094C910.751 913.722 909.383 936.195 911.359 965.165C912.72 984.868 917.074 1030 947.052 1018.32C973.771 1007.89 956.359 942.891 955.019 920.175C954.166 905.736 956.074 890.416 955.402 875.888L961.512 894.499C962.238 914.512 961.051 936.852 963.675 956.653C965.827 972.809 982.261 980.742 997.251 981.695C1019.42 983.101 1025.71 960.301 1024.34 942.037C1011.74 772.125 1014.9 600.923 1016.71 430.746C1018.17 291.362 1031.55 59.7191 836.212 55.2728C711.566 52.5596 628.731 79.2597 562.249 187.498C530.242 239.579 539.562 264.55 540.582 322.021C541.344 363.843 541.295 405.344 541.831 447.209C542.186 475.538 546.404 507.086 543.64 535.665C541.751 554.942 525.633 553.936 523.919 539.851L519.118 220.98C488.06 143.212 432.05 61.9062 330.378 61.2335C61.0671 50.1441 60.1008 196.177 61.9654 402.847C63.7896 605.036 65.7766 750.228 55.308 920.562C53.6343 948.249 39.182 988.935 69.2303 1007.7C76.8773 1012.48 95.7324 1016.33 101.297 1008.19C104.672 1003.22 109.056 961.925 109.428 953.429C109.905 942.731 103 853.207 113.254 853.095C117.014 858.201 118.114 869.494 118.524 875.747C121.025 914.117 119.555 952.012 120.163 989.831C120.744 1024.82 160.06 1035.64 171.298 1002.76C187.881 954.038 161.562 904.179 170.736 855.589L170.691 855.633ZM501.964 827.025C494.188 834.932 444.174 843.684 459.03 823.908C462.812 818.852 497.291 809.638 502.284 812.818C505.028 814.59 504.829 824.076 501.919 827.07L501.964 827.025ZM487.399 891.586C488.876 886.83 497.04 881.713 501.57 879.81C518.555 872.683 585.354 866.65 586.904 891.75C588.454 916.85 531.175 917.73 513.932 916.043C499.848 914.69 481.722 909.984 487.4 891.542L487.399 891.586Z" fill="#AEB6FF"/>
<path d="M487.41 891.567C481.732 910.01 499.814 914.716 513.942 916.068C531.185 917.756 588.502 918.001 586.914 891.776C585.326 865.552 518.565 872.709 501.58 879.836C497.051 881.739 488.887 886.856 487.41 891.612L487.41 891.567ZM500.422 904.693C489.295 893.333 511.569 878.778 519.722 888.993C528.727 900.249 508.094 912.523 500.422 904.693Z" fill="#FFFCF3"/>
<path d="M501.965 827.029C504.875 824.081 505.074 814.55 502.33 812.778C497.338 809.598 462.858 818.857 459.076 823.868C444.22 843.643 494.234 834.892 502.011 826.985L501.965 827.029Z" fill="#0C2135"/>
<path d="M500.42 904.682C508.092 912.511 528.68 900.192 519.72 888.982C511.567 878.766 489.293 893.322 500.42 904.682Z" fill="#0C2135"/>
</svg>
