<svg viewBox="290.0 43.0 499.0 1000.2" fill="none" xmlns="http://www.w3.org/2000/svg" preserveAspectRatio="xMidYMax meet">

<ellipse cx="460.459" cy="147.891" rx="54.1263" ry="44.5746" fill="#FFFCF3"/>
<ellipse cx="638.758" cy="147.891" rx="54.1263" ry="44.5746" fill="#FFFCF3"/>
<path d="M693.182 1026.54C693.404 1019.61 692.96 1012.65 693.182 1005.72C694.249 968.663 700.118 931.072 697.539 893.88C697.361 891.351 696.294 882.652 694.649 881.587C688.78 877.725 686.246 884.871 685.757 889.664C684.2 905.109 685.668 923.749 684.69 939.727C683.445 959.92 680.466 980.158 679.31 1000.4C678.82 1008.7 680.466 1017.26 678.154 1025.34C661.258 1025.74 644.451 1024.18 627.555 1024.36C616.351 1024.5 604.791 1025.29 593.408 1025.43C547.701 1025.92 501.105 1024.45 455.664 1019.21C439.969 1017.39 424.407 1018.68 408.89 1017.97C404.088 1017.75 399.242 1018.24 394.44 1018.02C395.507 988.191 393.595 958.722 391.238 929.075C390.394 918.335 390.527 888.776 384.258 880.655C375.543 869.337 377.233 898.629 377.322 902.49C377.855 926.501 379.9 950.822 380.612 974.832C380.745 980.203 381.145 1015.31 379.367 1016.82C374.52 1018.1 368.474 1015.84 364.116 1015.97C350.911 1016.37 334.905 1023.39 322.366 1022.28C316.141 1021.7 309.383 1017.13 308.227 1010.83C306.271 1000.09 307.916 986.594 308.005 975.986C308.449 932.892 309.472 890.108 308.005 847.058C305.293 770.632 298.001 694.34 296.267 618.004C295.066 564.879 298.045 511.399 302.625 458.275C308.939 385.134 347.265 301.341 426.408 286.251L413.114 276.665C388.393 254.163 376.788 222.785 374.254 189.766C370.252 137.351 420.85 78.6339 468.025 61.0144C486.432 54.1352 508.485 54.1796 528.316 53.0257C572.6 50.4072 604.435 52.2268 647.297 65.275C696.694 80.276 725.239 131.182 727.329 180.312C729.952 242.535 698.829 267.034 650.009 296.947C645.918 299.477 625.777 309.241 625.066 311.504C621.153 324.286 643.295 315.144 648.008 313.058C665.037 305.557 681.355 292.198 696.694 281.68C697.673 280.97 698.473 281.147 699.584 281.369C702.83 282.035 720.437 292.775 724.039 295.394C760.187 321.712 770.946 343.592 775.348 387.974C777.794 412.739 781.751 446.824 781.84 471.012C781.84 482.019 779.75 495.111 779.572 506.118C778.461 587.958 783.974 669.354 782.862 751.193C782.106 807.203 778.016 863.346 776.371 919.4C775.793 938.883 774.014 972.658 776.371 990.854C776.771 993.872 778.416 994.627 779.083 996.668C782.773 1008.3 777.794 1020.9 765.789 1024.89C743.024 1032.48 716.658 1024.76 693.226 1026.49L693.182 1026.54ZM447.528 143.786C435.123 145.029 407.067 150.798 410.668 168.285C412.936 179.38 428.32 182.221 437.657 182.886C448.283 183.685 478.785 182.798 487.677 178.493C497.77 173.611 500.349 162.338 491.59 154.615C479.629 144.097 462.956 142.233 447.572 143.742L447.528 143.786ZM616.084 144.851C582.915 149.068 587.139 177.783 618.974 179.78C628.178 180.357 656.278 178.271 663.259 172.767C670.239 167.264 670.906 156.213 662.592 151.109C654.277 146.005 626.399 143.52 616.084 144.851ZM541.966 208.805C537.208 212.578 539.787 219.324 545.7 219.989C548.101 220.256 570.377 215.906 572.022 214.797C578.736 210.092 565.397 191.674 562.463 186.126C560.551 182.487 554.86 163.802 549.213 171.835C542.944 180.756 559.439 201.127 558.728 204.722C558.239 207.208 545.389 206.054 541.966 208.805ZM566.953 247.151C560.062 237.742 531.695 245.731 543.255 256.427C553.837 266.235 574.912 257.98 566.953 247.151Z" fill="#B8B1A5"/>
<path d="M373.8 65.9479C382.47 63.285 397.898 81.1264 398.61 88.7601C399.232 95.4617 394.386 98.3465 388.25 95.8168C384.426 94.219 370.598 76.3332 370.02 72.4276C369.665 70.1642 371.532 66.658 373.755 65.9479H373.8Z" fill="#000000"/>
<path d="M759.119 119.33C765.299 118.931 775.881 118.221 772.991 127.851C770.723 135.441 746.091 135.929 739.644 134.908C735.198 134.242 733.686 131.624 734.976 127.23C736.621 121.682 753.872 119.685 759.074 119.33H759.119Z" fill="#000000"/>
<path d="M352.459 88.3158C362.374 85.2535 385.228 106.424 376.247 114.146C367.265 121.868 354.505 100.831 348.947 95.55C347.88 93.1534 350.103 89.0259 352.459 88.2714V88.3158Z" fill="#000000"/>
<path d="M733.467 67.0226C741.56 65.9131 743.694 72.6147 739.559 78.5175C736.269 83.2219 711.236 99.7319 711.236 85.441C711.236 78.9169 727.643 67.8215 733.467 67.0226Z" fill="#000000"/>
<path d="M328.497 119.222C332.498 115.183 348.683 124.104 352.729 127.033C356.463 129.696 361.176 134.178 358.687 139.238C355.574 145.54 341.746 137.152 337.745 134.578C333.743 132.004 322.761 125.036 328.541 119.266L328.497 119.222Z" fill="#000000"/>
<path d="M747.327 93.6895C752.663 92.9351 758.443 93.3789 757.02 100.125C755.597 106.871 732.61 116.502 728.298 111.132C721.984 103.232 741.77 94.5328 747.327 93.6895Z" fill="#000000"/>
<path d="M541.958 208.809C545.381 206.102 558.231 207.211 558.72 204.726C559.431 201.131 542.936 180.715 549.205 171.839C554.852 163.806 560.543 182.535 562.455 186.13C565.389 191.678 578.684 210.096 572.014 214.8C570.369 215.954 548.093 220.304 545.692 219.993C539.779 219.283 537.245 212.537 541.958 208.809Z" fill="#000000"/>
<path d="M566.962 247.139C574.921 258.013 553.846 266.223 543.264 256.415C531.703 245.675 560.07 237.73 566.962 247.139Z" fill="#000000"/>
<path d="M453.868 153.296C465.739 151.787 471.386 170.782 457.914 175.531C440.796 181.522 436.705 155.47 453.868 153.296Z" fill="#000000"/>
<path d="M630.973 153.308C646.668 149.713 651.782 170.306 637.998 173.058C621.414 176.387 618.702 156.104 630.973 153.308Z" fill="#000000"/>
</svg>
