<svg viewBox="47.0 43.0 985.9 1000.2" fill="none" xmlns="http://www.w3.org/2000/svg" preserveAspectRatio="xMidYMax meet">

<g clip-path="url(#clip0_1_1238)">
<ellipse cx="251.657" cy="189.087" rx="60.494" ry="31.839" transform="rotate(-30.1112 251.657 189.087)" fill="#FFFCF3"/>
<path d="M664.846 399.855C667.119 401.526 670.105 385.124 670.239 383.541C674.472 330.903 670.328 273.121 671.308 219.956C671.843 189.789 669.971 161.206 700.141 143.924C680.087 135.217 664.98 114.637 654.374 96.2114C651.611 91.4182 642.876 76.7307 647.155 72.5971C652.369 67.54 680.889 68.0677 688.956 68.3755C779.947 71.8289 870.581 71.6188 961.598 73.7404C973.675 74.0043 989.763 72.2453 1001.13 73.7844C1008.97 74.8398 1014.72 79.633 1013.47 87.9002C1018.82 169.781 1014 255.227 1018.82 342.293C1025.86 467.395 1026.01 593.782 1026.35 719.022C1026.53 780.455 1029.96 845.493 1018.51 905.562C995.716 1025.1 858.49 1035.91 761.328 1004.86C576.164 945.711 463.506 777.245 338.058 642.595C316.712 619.684 295.589 596.509 273.931 573.95C267.023 566.739 255.347 553.15 248.262 547.566C245.633 545.455 239.661 541.014 236.943 545.147C233.556 550.292 241.31 557.768 244.518 561.813C263.057 584.944 284.002 605.92 303.878 627.775C323.753 649.631 341.802 669.859 360.92 690.747C353.567 702.224 355.082 715.768 353.567 728.565C346.035 792.856 347.996 856.179 352.497 920.689C353.789 939.466 349.021 940.61 362.658 956.045C369.654 963.916 385.118 973.195 389.084 980.627C397.329 996.106 385.341 1009.56 370.947 1014.88C344.877 1024.51 320.188 1020.03 302.229 998.744C298.976 994.874 284.76 970.117 281.373 970.82C279.457 971.216 272.326 1003.54 270.9 1007.98C268.85 1014.4 264.929 1021.22 258.734 1024.47C236.14 1036.34 227.049 1010.4 225.222 992.984L216.176 1011.98C203.965 1036.17 175.088 1024.78 178.163 999.316L164.838 1019.37C157.529 1026.45 151.87 1034.54 140.328 1033C131.95 1031.86 120.408 1019.06 118.803 1010.97C118.269 1008.24 118.491 999.404 117.244 998.26C115.506 996.721 115.283 999.096 114.793 999.624C104.454 1011.14 86.4498 1029.75 70.1394 1016.77C57.1712 1006.4 69.0253 988.982 72.0111 976.361C103.747 842.246 78.745 668.21 74.5066 530.196C72.3442 459.78 68.1822 353.993 140.773 311.774C113.545 300.429 84.3999 290.315 72.5904 260.852C41.5501 183.406 98.1679 90.9055 177.36 70.2664C251.158 50.9616 332.622 51.8411 384.672 114.329C398.309 118.682 420.101 118.199 432.668 123.959C457.757 135.481 415.02 161.382 406.598 169.781C406.241 178.927 408.068 188.03 406.598 197.265C400.181 237.809 366.356 267.008 334.716 289.919C326.605 295.768 311.409 303.463 305.126 309.224C303.699 310.543 302.452 311.73 302.273 313.797C308.29 318.107 317.648 313.445 323.709 310.675C349.511 298.89 383.157 271.582 401.25 249.99C405.216 245.241 410.252 233.368 413.149 231.125C420.324 225.496 448.622 217.185 457.936 217.185C530.85 217.185 605.935 328.913 649.338 379.847C654.775 386.223 662.975 390.973 664.891 399.899L664.846 399.855ZM276.337 160.546C262.121 162.305 240.062 173.387 229.5 182.973C204.812 205.356 221.39 221.055 250.312 213.008C261.364 209.929 293.628 190.625 297.149 180.071C299.421 173.299 298.263 169.165 293.182 164.504C287.612 159.403 283.735 159.667 276.337 160.59V160.546ZM802.817 277.43C800.99 275.715 825.589 238.689 827.951 234.203C835.883 219.208 848.629 186.403 821.4 183.633C775.855 179.059 764.536 251.397 739.179 274.308C737.53 275.803 730.712 282.224 730.044 278.002C728.93 270.702 732.539 261.16 733.252 253.684C735.035 235.259 738.11 193.043 712.307 189.965C707.583 189.393 696.487 189.261 695.818 195.682C695.15 202.102 706.113 199.859 710.079 200.607C721.978 202.894 722.111 227.343 722.646 236.842L717.788 282.663C727.281 300.341 742.611 290.403 752.504 278.969C769.839 258.961 783.03 207.291 806.783 197.441C811.417 195.506 823.673 192.208 825.009 198.98C829.822 224.089 793.77 252.893 789.403 276.287C786.283 293.129 798.895 295.46 811.284 287.369C836.329 271.01 857.809 225.321 893.103 229.894C894.93 236.842 886.731 245.461 882.363 250.914C870.599 265.601 832.006 298.538 829.6 314.941C827.683 328.001 839.226 330.595 849.921 328.661C875.501 323.955 901.882 290.403 922.07 290.007C925.1 289.963 928.131 290.271 930.047 292.821C928.71 296.427 925.813 299.154 923.095 301.704C904.868 318.59 861.998 341.853 850.723 361.158C847.336 366.918 844.529 372.899 849.386 378.748C858.789 390.137 880.492 375.625 891.321 371.668C900.189 368.414 951.081 348.273 930.537 374.482C907.007 404.517 857.898 404.209 841.142 439.3C820.464 482.615 842.924 524.743 836.73 570.037C831.159 610.537 819.706 661.416 788.957 690.703C755.623 722.452 682.672 742.197 638.598 727.114C629.953 724.167 614.444 716.12 606.735 711.063C602.234 708.117 593.41 697.431 588.597 698.706C578.392 701.476 596.53 719.022 600.139 721.793C644.213 755.477 692.565 750.596 742.7 734.765C841.275 703.675 853.709 598.268 846.668 510.231C844.974 488.772 844.217 474.48 851.035 453.284C860.126 425.053 879.779 424.525 902.64 411.333C916.232 403.505 947.962 380.551 947.16 363.576C946.224 343.788 919.976 349.812 907.899 353.198C892.078 357.684 877.283 365.291 861.641 370.348C860.839 369.601 866.098 363.269 866.944 362.389C885.75 343.48 923.006 324.747 938.024 304.826C947.16 292.689 941.322 279.541 926.259 277.562C896.357 273.649 874.52 308.432 846.668 314.413C845.732 313.489 851.614 305.354 852.639 303.947C865.518 286.445 906.294 251.397 905.581 230.51C904.957 212.216 876.169 217.845 864.983 223.254C839.76 235.479 827.505 261.204 807.139 275.935C806.159 276.639 803.886 278.442 802.817 277.474V277.43ZM306.195 228.135C301.427 228.399 282.041 241.943 276.916 245.549C271.435 249.375 250.891 263.71 249.242 268.943C247.148 275.715 254.456 279.321 260.294 276.595L311.855 243.042C318.138 237.853 313.905 227.695 306.195 228.135Z" fill="#B8B1A5"/>
<path d="M57.0271 89.7733C62.9541 88.0583 66.9649 90.9166 71.243 94.3026C75.5212 97.6887 90.9403 112.684 78.9972 114.707C74.2288 115.498 54.3087 102.746 53.2837 98.3043C52.5261 95.0942 53.3283 90.8726 57.0271 89.7733Z" fill="#000000"/>
<path d="M93.3377 88.8124C97.9278 96.1562 91.6442 99.894 84.3357 97.1676C78.1413 94.8369 64.683 77.3351 76.2696 74.9605C83.9347 73.3774 87.4552 81.6886 90.6193 86.7896C91.2877 87.889 92.9366 88.1968 93.3377 88.8124Z" fill="#000000"/>
<path d="M105.166 64.4014C113.455 63.1701 117.154 79.5726 114.524 85.3333C113.366 87.9278 107.884 91.4018 105.656 87.7519C102.67 82.7828 94.9607 65.9405 105.166 64.4014Z" fill="#000000"/>
<path d="M306.176 228.169C313.886 227.773 318.075 237.887 311.836 243.076L260.275 276.629C254.482 279.355 247.129 275.749 249.223 268.977C250.828 263.744 271.416 249.408 276.898 245.583C282.022 242.021 301.408 228.433 306.176 228.169Z" fill="#000000"/>
<path d="M802.285 278.506C802.999 278.859 802.999 279.211 802.285 279.563V278.506Z" fill="#B8B1A5"/>
<path d="M238.886 184.788C252.835 182.149 261.97 200.487 247.398 208.006C228.726 217.593 221.506 188.086 238.886 184.788Z" fill="#000000"/>
</g>
<defs>
<clipPath id="clip0_1_1238">
<rect width="973.991" height="973.991" fill="white" transform="translate(53.0488 53.0234)"/>
</clipPath>
</defs>
</svg>
