<svg viewBox="47.0 43.0 986.0 1000.2" fill="none" xmlns="http://www.w3.org/2000/svg" preserveAspectRatio="xMidYMax meet">

<ellipse cx="428.34" cy="171.67" rx="57.3102" ry="38.2068" fill="#FFFCF3"/>
<ellipse cx="670.315" cy="171.67" rx="57.3102" ry="38.2068" fill="#FFFCF3"/>
<path d="M755.701 524.768C755.928 530.781 755.474 543.126 755.701 549.139C755.928 555.882 757.607 564.173 757.925 570.961C763.028 687.977 754.707 808.4 754.611 925.853C754.611 953.78 756.291 988.176 753.567 1015.46C753.386 1017.15 752.115 1022.43 751.116 1023.39C749.437 1025.03 733.322 1027.04 730.1 1026.99C655.202 1025.53 566.188 1022.12 491.154 1021.57C476.492 1021.47 341.709 1028.31 341.631 1019.88C341.541 1011.73 343.901 1000.89 343.901 992.549C343.901 841.942 339.543 703.224 347.669 551.736C348.213 541.804 350.392 531.691 350.347 521.622C350.71 521.03 360.469 521.577 362.33 521.668C408.994 524.675 454.885 518.479 501.594 519.162C522.974 519.481 540.405 515.381 561.467 513.65C565.371 513.331 569.637 511.327 573.405 511.463C580.94 511.645 596.056 516.611 605.18 517.887C636.315 522.292 755.701 524.768 755.701 524.768Z" fill="#B8B1A5"/>
<path d="M588.143 503.731C601.397 488.834 599.718 473.39 583.74 461.773C563.676 447.194 539.028 451.34 515.923 449.017C514.335 448.88 498.447 447.24 501.08 443.732C524.049 436.306 548.47 434.803 572.028 430.293C580.29 428.698 590.094 426.876 596.313 420.817C602.169 415.122 604.847 406.831 600.081 399.45C585.51 376.945 527.408 383.141 503.758 381.41C500.581 381.182 494.907 380.59 492.365 378.676C492.455 375.077 511.248 373.027 514.652 372.663C536.985 370.339 596.54 377.4 608.615 355.578C618.692 337.356 588.642 326.24 575.206 323.871C551.692 319.679 525.501 322.413 501.579 321.319C493.726 320.955 485.056 319.36 477.067 319.133C489.732 307.105 510.885 308.882 527.362 305.739C541.025 303.142 553.417 300.363 551.102 283.142C553.508 283.142 555.687 284.19 558.138 284.281C605.165 285.876 651.556 283.051 698.537 280.91C754.052 278.404 777.837 277.265 833.262 275.443C850.484 274.897 899.556 283.108 875.113 241.138C868.034 228.982 850.511 236.036 843.929 247.926C841.75 251.89 839.117 263.871 835.44 264.555C784.692 263.598 765.899 265.603 715.423 270.022C758.909 239.225 781.378 180.091 758.137 129.523C757.411 121.231 783.602 100.457 790.865 96.1748C843.157 65.378 922.276 56.2209 975.43 89.3412C1031.43 124.255 1027.37 199.571 1026.63 256.309C1025.44 339.477 1026.63 500.77 912.971 500.77C808.299 500.77 713.712 516.134 624.638 508.059C612.473 506.966 600.308 504.916 588.188 503.686L588.143 503.731Z" fill="#B8B1A5"/>
<path d="M395.622 274.438H256.312C255.995 270.429 256.857 265.828 256.267 261.955C254.497 250.384 235.069 242.001 225.945 249.974C205.751 267.591 216.315 284.803 235.069 285.463C273.698 286.511 312.781 285.463 351.5 285.372C395.032 285.281 443.692 288.242 486.543 285.463C503.156 284.37 523.401 276.716 538.154 288.151C518.998 298.219 494.94 295.03 475.83 306.374C464.21 313.298 460.669 325.963 475.921 329.881C508.013 338.173 570.564 324.278 595.802 343.913C607.014 352.614 578.462 357.899 572.334 358.446C552.362 360.268 502.884 355.576 487.133 366.828C474.741 375.712 481.459 389.835 495.304 392.341C521.041 397.033 550.546 390.928 577.6 398.217C591.127 401.862 595.53 409.698 579.189 414.436C555.675 421.269 525.036 420.222 501.25 429.06C484.182 435.392 481.958 453.387 500.751 458.991C525.217 466.326 559.897 457.579 579.597 475.938C587.405 483.227 585.135 491.974 575.966 496.394C565.162 501.587 516.048 507.191 502.793 507.145C441.383 506.883 379.388 508.039 318.178 506.548C109.373 506.548 53 481.493 53 344.688C53 207.882 56.813 230.885 61.6246 171.342C70.411 60.5237 272.085 20.9951 330.983 112.664C333.207 116.081 336.612 116.673 336.975 122.049C337.383 128.153 330.438 134.258 327.306 139.725C309.376 170.977 315.05 201.136 334.932 229.974C349.821 251.568 369.158 269.29 395.667 274.438H395.622Z" fill="#B8B1A5"/>
<path d="M525.869 54.1101C583.971 50.4656 636.99 54.3881 685.741 87.4172C744.993 127.666 787.804 193.658 718.105 252.558C689.508 276.749 649.654 271.966 614.701 273.287C593.957 274.061 566.222 278.025 546.159 275.565C541.211 274.972 537.353 271.601 530.998 271.146C520.104 270.371 515.428 274.562 507.031 275.565C477.072 279.118 393.913 265.679 370.4 246.59C349.61 229.688 324.916 190.873 332.179 163.402C350.472 94.3373 463.045 58.0281 525.869 54.1101ZM529.636 204.222C532.95 207.593 560.684 204.222 566.767 203.219C572.35 202.308 584.969 201.306 586.83 194.928C589.736 185.179 572.668 172.878 566.903 166.227C562.909 161.626 551.697 144.45 547.067 143.494C542.845 142.583 538.397 143.403 538.124 148.277C537.534 158.619 555.192 175.839 560.957 184.222C561.592 185.133 562.455 185.315 562.046 186.955C555.237 187.639 530.635 189.142 528.501 196.477C527.957 198.436 528.229 202.764 529.636 204.176V204.222ZM420.331 145.863C407.349 146.956 380.295 153.516 378.207 169.097C374.984 193.151 411.752 193.242 427.458 191.238C443.164 189.233 483.018 179.484 463.499 156.432C454.512 145.772 433.313 144.769 420.286 145.863H420.331ZM666.267 149.097C650.97 150.008 621.692 152.651 629.454 175.566C637.352 198.891 689.553 196.477 707.847 189.689C720.012 185.179 727.138 173.288 718.241 161.853C707.801 148.368 681.791 148.141 666.313 149.097H666.267ZM485.56 212.422C484.425 211.329 481.566 210.691 480.022 211.146C476.618 212.194 475.574 228.823 476.118 232.285C477.48 241.078 483.472 240.804 490.78 240.576C499.723 240.303 512.387 239.711 521.057 238.208C525.369 237.479 532.768 236.522 534.357 231.875C537.58 222.262 526.277 222.855 520.149 223.082C510.39 223.447 499.087 225.816 489.146 226.363C488.783 222.991 487.921 214.654 485.605 212.468L485.56 212.422Z" fill="#B8B1A5"/>
<path d="M529.652 204.233C528.245 202.821 527.927 198.493 528.517 196.534C530.651 189.199 555.253 187.696 562.062 187.013C562.516 185.373 561.654 185.19 560.973 184.279C555.208 175.942 537.596 158.676 538.14 148.335C538.413 143.414 542.861 142.64 547.083 143.551C551.713 144.553 562.879 161.683 566.919 166.284C572.729 172.935 589.751 185.236 586.846 194.985C584.94 201.363 572.321 202.366 566.783 203.277C560.7 204.233 532.966 207.605 529.652 204.279V204.233Z" fill="#000000"/>
<path d="M485.56 212.419C487.92 214.606 488.737 222.943 489.101 226.314C499.087 225.768 510.344 223.399 520.104 223.034C526.232 222.806 537.534 222.214 534.311 231.827C532.768 236.474 525.324 237.43 521.011 238.159C512.341 239.663 499.677 240.255 490.735 240.528C483.427 240.756 477.435 241.029 476.073 232.237C475.528 228.82 476.572 212.146 479.977 211.098C481.475 210.643 484.334 211.28 485.515 212.374L485.56 212.419Z" fill="#000000"/>
<path d="M656.43 158.869C668.368 157.503 678.264 173.812 665.962 182.696C653.661 191.58 635.096 178.413 646.898 164.655C649.167 162.013 652.935 159.279 656.475 158.869H656.43Z" fill="#000000"/>
<path d="M407.255 156.636C421.871 154.631 423.914 176.089 409.706 179.916C393.682 184.289 387.645 159.278 407.255 156.636Z" fill="#000000"/>
</svg>
